<svg width="788" height="786" viewBox="0 0 788 786" fill="none" xmlns="http://www.w3.org/2000/svg">
<path d="M415.486 785.686C392.974 785.676 370.501 783.842 348.286 780.2C239.627 762.369 142.487 702.14 78.2021 612.741C13.9171 523.342 -12.257 412.083 5.42856 303.4C15.325 241.528 39.1764 182.721 75.1749 131.436C111.173 80.1515 158.374 37.7343 213.2 7.39992C222.45 2.2317 232.989 -0.171125 243.565 0.4772C254.141 1.12553 264.308 4.79772 272.857 11.0571C281.596 17.0361 288.408 25.4258 292.466 35.2055C296.524 44.9853 297.653 55.7335 295.714 66.1428L266 63.8571L294.114 68.8856C278.253 153.022 293.075 240.058 335.892 314.201C378.709 388.345 446.684 444.685 527.486 473C589.711 494.595 656.653 498.784 721.086 485.114C731.281 483.113 741.833 484 751.551 487.675C761.269 491.349 769.768 497.665 776.089 505.911C782.41 514.157 786.302 524.005 787.326 534.344C788.35 544.683 786.466 555.103 781.886 564.429C746.633 631.08 693.909 686.884 629.364 725.86C564.819 764.837 490.886 785.517 415.486 785.686ZM237.886 59.0571C194.167 83.8466 156.154 117.559 126.319 158.004C96.484 198.448 75.4946 244.719 64.7153 293.807C53.9361 342.896 53.6084 393.704 63.7534 442.927C73.8985 492.151 94.2892 538.688 123.6 579.514C158.928 628.897 206.238 668.482 261.078 694.544C315.919 720.606 376.488 732.29 437.088 728.495C497.688 724.701 556.327 705.553 607.488 672.853C658.649 640.153 700.651 594.976 729.543 541.571C656.023 556.35 579.895 551.301 508.971 526.943C415.389 494.13 336.627 428.932 286.913 343.126C237.198 257.32 219.808 156.563 237.886 59.0571Z" fill="white"/>
</svg>
