<svg xmlns="http://www.w3.org/2000/svg" version="1.1" xmlns:xlink="http://www.w3.org/1999/xlink" xmlns:svgjs="http://svgjs.dev/svgjs" width="10" height="10"><svg width="10" height="10" viewBox="0 0 10 10" fill="none" xmlns="http://www.w3.org/2000/svg">
<path d="M5.0001 0C2.2385 0 0 2.2385 0 4.99992C0 7.76152 2.2385 10 5.0001 10C7.76152 10 10 7.76152 10 4.99992C10 2.2385 7.76152 0 5.0001 0ZM3.65363 3.96703C3.65363 3.97418 3.65057 3.98049 3.64512 3.98492L2.23783 5.03145L3.64512 6.07848C3.65057 6.08223 3.65363 6.08904 3.65363 6.09586V6.74176C3.65363 6.74977 3.64971 6.75691 3.64324 6.76066C3.64035 6.76221 3.63746 6.7632 3.63404 6.7632C3.63029 6.7632 3.62639 6.76184 3.62314 6.7593L1.59637 5.25184C1.59109 5.24791 1.58768 5.24127 1.58768 5.2343V4.82873C1.58768 4.82158 1.59107 4.81494 1.59637 4.81102L3.62314 3.30359C3.62639 3.30104 3.63029 3.29984 3.63404 3.29984C3.63744 3.29984 3.64035 3.3007 3.64324 3.30238C3.64973 3.30596 3.65363 3.31312 3.65363 3.32129V3.96703ZM4.65857 7.03914C4.65568 7.04783 4.64854 7.05361 4.64 7.05361H4.07348C4.06701 7.05361 4.06121 7.0502 4.05746 7.04439C4.05389 7.03896 4.05285 7.0318 4.0549 7.02533L5.34143 2.96053C5.34398 2.95199 5.35146 2.94639 5.35982 2.94639H5.9265C5.93264 2.94639 5.93877 2.94963 5.94234 2.95525C5.94592 2.96088 5.94695 2.96803 5.9449 2.97467L4.65857 7.03914ZM8.41199 5.2343C8.41199 5.24127 8.40895 5.24793 8.40348 5.25184L6.3767 6.75928C6.37346 6.76182 6.36973 6.76318 6.3658 6.76318C6.36256 6.76318 6.35951 6.76217 6.3566 6.76064C6.35014 6.75689 6.34621 6.74975 6.34621 6.74174V6.096C6.34621 6.08902 6.34928 6.08221 6.35473 6.07846L7.76201 5.03143L6.35473 3.9849C6.3493 3.98082 6.34621 3.97436 6.34621 3.96721V3.32129C6.34621 3.31312 6.35014 3.30596 6.3566 3.30238C6.35949 3.3007 6.36256 3.29984 6.3658 3.29984C6.36973 3.29984 6.37346 3.30104 6.3767 3.30359L8.40348 4.81102C8.40895 4.81494 8.41199 4.82158 8.41199 4.82873V5.2343Z" fill="#FFC107"></path>
</svg><style>@media (prefers-color-scheme: light) { :root { filter: none; } }
@media (prefers-color-scheme: dark) { :root { filter: none; } }
</style></svg>