<svg width="800" height="800" viewBox="0 0 800 800" fill="none" xmlns="http://www.w3.org/2000/svg">
<g clip-path="url(#clip0_33_4)">
<mask id="mask0_33_4" style="mask-type:luminance" maskUnits="userSpaceOnUse" x="0" y="0" width="800" height="800">
<path d="M16.6667 16.6667H783.333V783.333H16.6667V16.6667Z" fill="white" stroke="white" stroke-width="33.3333"/>
</mask>
<g mask="url(#mask0_33_4)">
<path d="M166.667 400H33.3333M766.667 400H633.333M235 235L140.733 140.733M659.267 659.266L565 565M235 565L140.733 659.266M659.267 140.733L565 235" stroke="black" stroke-width="50" stroke-miterlimit="10" stroke-linecap="round"/>
<path d="M400 533.333C435.362 533.333 469.276 519.286 494.281 494.281C519.286 469.276 533.333 435.362 533.333 400C533.333 364.638 519.286 330.724 494.281 305.719C469.276 280.714 435.362 266.667 400 266.667C364.638 266.667 330.724 280.714 305.719 305.719C280.714 330.724 266.667 364.638 266.667 400C266.667 435.362 280.714 469.276 305.719 494.281C330.724 519.286 364.638 533.333 400 533.333Z" stroke="black" stroke-width="50" stroke-miterlimit="10"/>
<path d="M400 633.333V766.667M400 33.3333V166.667" stroke="black" stroke-width="50" stroke-miterlimit="10" stroke-linecap="round"/>
</g>
</g>
<defs>
<clipPath id="clip0_33_4">
<rect width="800" height="800" fill="white"/>
</clipPath>
</defs>
</svg>
